<svg id="filled_outline" height="512" viewBox="0 0 512 512" width="512" xmlns="http://www.w3.org/2000/svg" data-name="filled outline"><path d="m96 56h320v280h-320z" fill="#f6bb00"/><path d="m72 24h368v32h-368z" fill="#de9400"/><path d="m72 336h368v32h-368z" fill="#de9400"/><path d="m240 368h32v56h-32z" fill="#b86e00"/><path d="m240 424-32 64h-24l23.79817-65.445a34.26477 34.26477 0 0 1 32.20183-22.555z" fill="#de9400"/><path d="m272 424 32 64h24l-23.79817-65.445a34.26477 34.26477 0 0 0 -32.20183-22.555z" fill="#de9400"/><path d="m328 168a40 40 0 0 0 -40-40v-40a80 80 0 0 1 80 80z" fill="#d62f2f"/><path d="m336 200a80.02658 80.02658 0 0 1 -72 79.60986q-3.94482.39039-8 .39014-4.04993 0-8-.39014a80.02658 80.02658 0 0 1 -72-79.60986c0-2.73.14014-5.41992.3999-8.08008a79.93722 79.93722 0 0 1 79.6001-71.91992v40a40.00447 40.00447 0 0 0 -8 79.2 40.39753 40.39753 0 0 0 16 0 40.01644 40.01644 0 0 0 32-39.2z" fill="#548aff"/><path d="m440 16h-368a8.00039 8.00039 0 0 0 -8 8v32a8.00039 8.00039 0 0 0 8 8h16v264h-16a8.00039 8.00039 0 0 0 -8 8v32a8.00039 8.00039 0 0 0 8 8h160v16.772a42.4234 42.4234 0 0 0 -31.7207 27.04834l-23.79785 65.44531a8 8 0 0 0 7.51855 10.73435h24a8.00022 8.00022 0 0 0 7.15527-4.42188l13.78907-27.57812h54.11132l13.78907 27.57812a8.00022 8.00022 0 0 0 7.15527 4.42188h24a8 8 0 0 0 7.51855-10.73438l-23.79785-65.44531a42.4234 42.4234 0 0 0 -31.7207-27.04831v-16.772h160a8.00039 8.00039 0 0 0 8-8v-32a8.00039 8.00039 0 0 0 -8-8h-16v-264h16a8.00039 8.00039 0 0 0 8-8v-32a8.00039 8.00039 0 0 0 -8-8zm-236.94434 464h-7.63378l19.89453-54.71094a26.35625 26.35625 0 0 1 16.68359-16.03076v12.853zm33.88868-32 8-16h22.11132l8 16zm59.73925-22.71094 19.89453 54.71094h-7.63378l-28.94434-57.88867v-12.853a26.35625 26.35625 0 0 1 16.68359 16.03073zm-32.68359-9.28906h-16v-40h16zm168-56h-352v-16h352zm-24-32h-304v-264h304zm24-280h-352v-16h352z"/><path d="m288 136a32.03667 32.03667 0 0 1 32 32 8.00039 8.00039 0 0 0 8 8h40a8.00039 8.00039 0 0 0 8-8 88.09957 88.09957 0 0 0 -88-88 8.00039 8.00039 0 0 0 -8 8v40a8.00039 8.00039 0 0 0 8 8zm8-39.55859a72.146 72.146 0 0 1 63.55859 63.55859h-24.22559a48.12391 48.12391 0 0 0 -39.333-39.333z"/><path d="m184 88h16v16h-16z"/><path d="m136 88h32v16h-32z"/><path d="m312 296h16v16h-16z"/><path d="m344 296h32v16h-32z"/><path d="m181.65723 277.65723 13.82739-13.82715a87.84288 87.84288 0 0 0 121.031 0l13.82715 13.82715a8.00235 8.00235 0 0 0 5.65723 2.34277h40v-16h-36.68652l-12.21192-12.21289a87.52369 87.52369 0 0 0 16.89844-51.78711 8.00039 8.00039 0 0 0 -8-8h-40a8.00039 8.00039 0 0 0 -8 8 32 32 0 1 1 -32-32 8.00039 8.00039 0 0 0 8-8v-40a8.00039 8.00039 0 0 0 -8-8 87.68637 87.68637 0 0 0 -60.51538 24.17017l-13.82739-13.8274a8.00235 8.00235 0 0 0 -5.65723-2.34277h-40v16h36.68652l12.21192 12.21289a87.80284 87.80284 0 0 0 0 103.57422l-12.21192 12.21289h-36.68652v16h40a8.00235 8.00235 0 0 0 5.65723-2.34277zm121.67577-69.65723h24.22558a72.131 72.131 0 0 1 -63.55858 63.54053v-24.218a48.11712 48.11712 0 0 0 39.333-39.32253zm-55.333-79.55859v24.22559a48.15428 48.15428 0 0 0 -36.7666 30.03076l-23.73194-4.84423a72.18509 72.18509 0 0 1 60.49854-49.41212zm-63.70361 65.08642 23.74072 4.84619c-.01811.54053-.03711 1.08106-.03711 1.62598a48.0682 48.0682 0 0 0 40 47.32056v24.22436a72.095 72.095 0 0 1 -64-71.54492c0-2.18188.10547-4.33911.29639-6.47217z"/><path d="m184 296h16v16h-16z"/><path d="m136 296h32v16h-32z"/></svg>