<svg id="Capa_1" enable-background="new 0 0 512.001 512.001" height="512" viewBox="0 0 512.001 512.001" width="512" xmlns="http://www.w3.org/2000/svg"><g><g><path d="m243.812 221.443h-179.675c-16.077 0-29.111-13.712-29.111-30.627v-126.821c0-31.201 24.042-56.495 53.698-56.495h95.172c14.787 0 27.711 10.496 31.456 25.546l12.717-9.712c11.764-8.984 28.088-7.111 37.735 4.33 4.586 5.439 7.118 12.457 7.118 19.727v143.425c0 16.915-13.033 30.627-29.11 30.627z" fill="#365e7d"/><g><path d="m265.804 27.664c-7.94-9.416-20.4-12.345-31.121-8.08 4.168 1.652 8.018 4.356 11.159 8.08 4.586 5.439 7.118 12.457 7.118 19.727v143.425c0 16.915-13.033 30.627-29.111 30.627h19.963c16.077 0 29.111-13.712 29.111-30.627v-143.424c-.001-7.271-2.533-14.289-7.119-19.728z" fill="#2b4d66"/></g></g><path d="m293.11 504.5h-278.272c-4.053 0-7.338-3.285-7.338-7.338v-140.61c0-53.704 43.536-97.24 97.24-97.24h98.468c53.704 0 97.24 43.536 97.24 97.24v140.61c0 4.053-3.285 7.338-7.338 7.338z" fill="#dd636e"/><path d="m203.209 259.313h-27.526c53.704 0 97.24 43.536 97.24 97.24v147.947h20.188c4.053 0 7.338-3.285 7.338-7.338v-140.61c-.001-53.704-43.536-97.239-97.24-97.239z" fill="#da4a54"/><g fill="#f6f1f1"><path d="m153.974 341.745-36.807 20.722c-4.084 2.299-9.238.095-10.396-4.446l-25.179-98.707 21.275-20.819 14.398 39.669z"/><path d="m153.974 341.745 36.807 20.722c4.084 2.299 9.238.095 10.396-4.446l25.179-98.707-21.275-20.819-14.398 39.669z"/></g><path d="m153.974 341.745 36.709-63.582h-73.418z" fill="#e2a770"/><path d="m153.974 292.969c-52.287 0-94.674-42.387-94.674-94.674v-81.98c0-6.754 1.83-13.018 4.99-18.371 9.852-16.689 32.365-20.445 47.759-8.671 28.249 21.606 59.114 28.564 93.26 17.145 20.436-6.834 42.336 7.165 43.303 28.692.024.545.037 1.092.037 1.642v61.544c0 52.286-42.387 94.673-94.675 94.673z" fill="#f1d0a5"/><g><path d="m248.612 135.11c-.967-21.527-22.867-35.526-43.303-28.692-.177.059-.354.111-.531.169 11.813 4.165 20.926 14.812 21.542 28.523.024.545.037 1.092.037 1.642v61.544c0 48.516-36.495 88.501-83.528 94.018 3.656.429 7.374.656 11.146.656 52.287 0 94.674-42.387 94.674-94.674v-61.544c0-.55-.013-1.097-.037-1.642z" fill="#f1b986"/></g><path d="m59.3 189.461h-15.18c-10.531 0-19.069-8.537-19.069-19.069 0-10.531 8.537-19.068 19.069-19.068h15.18z" fill="#e2a770"/><path d="m248.649 189.461h15.18c10.531 0 19.069-8.537 19.069-19.069 0-10.531-8.537-19.068-19.069-19.068h-15.18z" fill="#e2a770"/><g><path d="m492.628 7.5h-30.443-29.987-102.177c-6.557 0-11.872 5.315-11.872 11.872v83.185l-20.878 12.054 20.878 12.054v21.646c0 6.557 5.315 11.872 11.872 11.872h162.607c6.557 0 11.873-5.315 11.873-11.872v-128.938c0-6.557-5.316-11.873-11.873-11.873z" fill="#dd636e"/><path d="m492.628 7.5h-19.943c6.557 0 11.872 5.315 11.872 11.872v128.939c0 6.557-5.315 11.872-11.872 11.872h19.943c6.557 0 11.872-5.315 11.872-11.872v-128.938c0-6.557-5.315-11.873-11.872-11.873z" fill="#da4a54"/><path d="m413.886 56.947s7.591-11.526 22.593-11.526c13.375 0 22.593 11.833 22.593 25.614 0 15.951-12.565 34.824-45.186 51.228-32.621-16.404-45.186-35.277-45.186-51.228 0-13.781 9.218-25.614 22.593-25.614 15.002 0 22.593 11.526 22.593 11.526z" fill="#f6f1f1"/><g><path d="m436.479 45.421c-3.946 0-7.373.801-10.291 1.977 8.347 3.922 13.616 13.221 13.616 23.637 0 14.271-10.071 30.881-35.552 45.969 2.999 1.776 6.199 3.532 9.634 5.259 32.62-16.404 45.186-35.277 45.186-51.228 0-13.781-9.218-25.614-22.593-25.614z" fill="#dae4ea"/></g></g><g><path d="m237.207 257.494c6.33-8.875 11.274-18.801 14.523-29.46 16.328-3.795 28.546-19.115 28.686-36.908 6.079-4.874 9.982-12.354 9.982-20.733 0-8.375-3.9-15.854-9.975-20.727v-102.274c0-9.044-3.155-17.768-8.885-24.562-12.318-14.611-32.965-16.953-48.021-5.457l-4.842 3.698c-6.985-12.787-20.139-21.071-34.779-21.071h-43.357c-4.143 0-7.5 3.357-7.5 7.5s3.357 7.5 7.5 7.5h43.357c11.326 0 21.269 8.165 24.178 19.857.61 2.45 2.413 4.43 4.796 5.266 2.382.837 5.028.415 7.034-1.116l12.717-9.712c8.585-6.555 20.385-5.176 27.45 3.203 3.452 4.094 5.353 9.384 5.353 14.894v96.484c-1.521-.091-1.564-.034-9.274-.052-.014-7.893 1.837-26.515-17.04-39.475-10.514-7.218-24.037-9.101-36.179-5.044-30.628 10.246-58.865 5.013-86.324-15.989-25.854-19.777-64.806-2.986-64.806 33v27.508c-7.803.018-7.753-.039-9.273.052v-79.881c-.002-27.016 20.722-48.995 46.196-48.995h21.828c4.143 0 7.5-3.357 7.5-7.5s-3.357-7.5-7.5-7.5h-21.828c-33.745 0-61.198 28.708-61.198 63.995v85.671c-6.075 4.873-9.975 12.351-9.975 20.727 0 8.379 3.903 15.86 9.982 20.733.138 17.82 12.225 33.131 28.688 36.917 3.249 10.655 8.192 20.579 14.52 29.452-18.419 6.342-34.943 17.81-47.338 33.068-15.091 18.575-23.403 42.012-23.403 65.989v140.61c0 8.182 6.656 14.838 14.839 14.838h181.858c4.143 0 7.5-3.357 7.5-7.5s-3.357-7.5-7.5-7.5h-181.697v-140.448c0-20.544 7.119-40.621 20.045-56.532 10.915-13.435 25.556-23.442 41.85-28.775l22.609 88.628c2.381 9.333 12.958 13.848 21.343 9.128l33.128-18.65 33.127 18.65c8.387 4.721 18.963.203 21.344-9.128l22.608-88.629c16.294 5.333 30.935 15.34 41.85 28.775 12.926 15.911 20.045 35.988 20.045 56.532v140.449h-66.264c-4.143 0-7.5 3.357-7.5 7.5s3.357 7.5 7.5 7.5h66.426c8.182 0 14.838-6.656 14.838-14.838v-140.61c0-23.978-8.312-47.414-23.403-65.99-12.397-15.258-28.92-26.727-47.339-33.068zm18.237-47.234c.827-7.06.689-12.719.704-13.298 8.667-.013 7.034.025 8.479-.021-1.437 5.517-4.756 10.256-9.183 13.319zm8.385-51.436c6.379 0 11.568 5.189 11.568 11.568s-5.189 11.569-11.568 11.569h-7.681v-23.138h7.681zm-197.029-42.508c0-23.444 24.569-33.42 40.692-21.086 31.273 23.919 64.983 30.074 100.195 18.302 7.813-2.613 16.175-1.454 22.932 3.185 6.412 4.401 10.529 11.513 10.529 20.035v61.544c0 48.067-39.106 87.174-87.174 87.174s-87.175-39.106-87.175-87.174v-81.98zm87.174 210.429-15.884-27.512c5.178.812 10.482 1.237 15.884 1.237s10.706-.425 15.884-1.237zm-102.174-167.921v23.138h-7.68c-6.379 0-11.568-5.19-11.568-11.569s5.189-11.568 11.568-11.568h7.68zm-8.494 38.117c1.38.04-1.176.006 8.494.021.005.21-.187 5.713.708 13.333-4.457-3.062-7.774-7.812-9.202-13.354zm70.611 158.748-18.869-73.969c6.937 4.915 14.513 8.981 22.574 12.061l26.067 45.148zm80.115.001-29.771-16.762 26.065-45.148c8.061-3.079 15.637-7.146 22.574-12.061z"/><path d="m110.552 175.954c4.143 0 7.5-3.357 7.5-7.5v-10.444c0-4.143-3.357-7.5-7.5-7.5s-7.5 3.357-7.5 7.5v10.443c0 4.143 3.357 7.501 7.5 7.501z"/><path d="m197.397 175.954c4.143 0 7.5-3.357 7.5-7.5v-10.444c0-4.143-3.357-7.5-7.5-7.5s-7.5 3.357-7.5 7.5v10.443c0 4.143 3.358 7.501 7.5 7.501z"/><path d="m133.502 242.664c6.697 4.146 13.583 6.218 20.473 6.218 6.887 0 13.776-2.073 20.473-6.218 3.522-2.18 4.61-6.802 2.43-10.324-2.181-3.523-6.803-4.611-10.324-2.43-8.582 5.312-16.576 5.311-25.156 0-3.52-2.181-8.144-1.094-10.324 2.43-2.182 3.521-1.095 8.144 2.428 10.324z"/><path d="m262.608 393.476c0-4.143-3.357-7.5-7.5-7.5h-43.418c-4.143 0-7.5 3.357-7.5 7.5s3.357 7.5 7.5 7.5h43.418c4.143 0 7.5-3.357 7.5-7.5z"/><path d="m492.628 0h-30.442c-4.143 0-7.5 3.357-7.5 7.5s3.357 7.5 7.5 7.5h30.442c2.411 0 4.373 1.961 4.373 4.372v128.938c0 2.411-1.962 4.372-4.373 4.372h-162.607c-2.411 0-4.373-1.961-4.373-4.372v-21.646c0-2.68-1.43-5.155-3.75-6.495l-9.627-5.559 9.627-5.559c2.32-1.34 3.75-3.815 3.75-6.495v-83.183c0-2.411 1.962-4.372 4.373-4.372h102.177c4.143 0 7.5-3.357 7.5-7.5s-3.357-7.5-7.5-7.5h-102.177c-10.683 0-19.373 8.69-19.373 19.372v78.855l-17.127 9.889c-2.32 1.34-3.75 3.815-3.75 6.495s1.43 5.155 3.75 6.495l17.127 9.889v17.315c0 10.682 8.69 19.372 19.373 19.372h162.606c10.683 0 19.373-8.69 19.373-19.372v-128.938c.001-10.682-8.689-19.373-19.372-19.373z"/><path d="m413.886 46.137c-4.791-3.965-12.323-8.217-22.593-8.217-16.874 0-30.093 14.546-30.093 33.114 0 28.824 30.898 48.667 49.316 57.929 2.123 1.068 4.623 1.064 6.738 0 18.418-9.262 49.316-29.104 49.316-57.929 0-18.568-13.219-33.114-30.093-33.114-10.268 0-17.8 4.252-22.591 8.217zm37.685 24.898c0 14.512-13.681 29.985-37.686 42.783-24.004-12.798-37.685-28.272-37.685-42.783 0-8.781 5.29-18.114 15.093-18.114 10.514 0 16.063 7.771 16.366 8.207 1.392 2.073 3.727 3.319 6.227 3.319 2.522 0 4.876-1.269 6.264-3.375.054-.081 5.666-8.151 16.329-8.151 9.802-.001 15.092 9.332 15.092 18.114z"/><path d="m161.475 384.806c0-4.143-3.357-7.5-7.5-7.5s-7.5 3.357-7.5 7.5v9.369c0 4.143 3.357 7.5 7.5 7.5s7.5-3.357 7.5-7.5z"/><path d="m161.475 427.849c0-4.143-3.357-7.5-7.5-7.5s-7.5 3.357-7.5 7.5v9.369c0 4.143 3.357 7.5 7.5 7.5s7.5-3.357 7.5-7.5z"/><path d="m153.975 463.392c-4.143 0-7.5 3.357-7.5 7.5v9.37c0 4.143 3.357 7.5 7.5 7.5s7.5-3.357 7.5-7.5v-9.37c0-4.142-3.358-7.5-7.5-7.5z"/></g></g></svg>