<svg xmlns="http://www.w3.org/2000/svg" width="65" height="52" viewBox="0 0 65 52">
  <metadata><?xpacket begin="﻿" id="W5M0MpCehiHzreSzNTczkc9d"?>
<x:xmpmeta xmlns:x="adobe:ns:meta/" x:xmptk="Adobe XMP Core 5.6-c142 79.160924, 2017/07/13-01:06:39        ">
   <rdf:RDF xmlns:rdf="http://www.w3.org/1999/02/22-rdf-syntax-ns#">
      <rdf:Description rdf:about=""/>
   </rdf:RDF>
</x:xmpmeta>
                                                                                                    
                                                                                                    
                                                                                                    
                                                                                                    
                                                                                                    
                                                                                                    
                                                                                                    
                                                                                                    
                                                                                                    
                                                                                                    
                                                                                                    
                                                                                                    
                                                                                                    
                                                                                                    
                                                                                                    
                                                                                                    
                                                                                                    
                                                                                                    
                                                                                                    
                                                                                                    
                           
<?xpacket end="w"?></metadata>
<defs>
    <style>
      .cls-1 {
        fill: #f2f5f7;
        fill-rule: evenodd;
      }
    </style>
  </defs>
  <path id="q_copy_2" data-name="q copy 2" class="cls-1" d="M399.173,187.729L397.228,184q-10.849,5.039-16.223,13.249a33.2,33.2,0,0,0-5.373,18.589q0,8.161,3.582,13.6A13.923,13.923,0,0,0,391.6,235.99a13.147,13.147,0,0,0,9.519-3.779,13.662,13.662,0,0,0,.051-19.042,13.5,13.5,0,0,0-9.57-3.577,12.593,12.593,0,0,0-7.779,2.721,13.58,13.58,0,0,1-.614-4.333q0-5.943,4.708-11.738a28.4,28.4,0,0,1,11.259-8.513h0Zm-35.619,0L361.61,184q-10.851,5.039-16.223,13.249a33.2,33.2,0,0,0-5.374,18.589q0,8.161,3.583,13.6a13.922,13.922,0,0,0,12.384,6.549,13.422,13.422,0,0,0,6.653-1.713,13.185,13.185,0,0,0,4.913-4.736,12.712,12.712,0,0,0,1.842-6.75,12.439,12.439,0,0,0-3.889-9.622,13.552,13.552,0,0,0-9.519-3.577,12.312,12.312,0,0,0-7.778,2.721,13.55,13.55,0,0,1-.615-4.333q0-5.943,4.709-11.738a28.4,28.4,0,0,1,11.258-8.513h0Z" transform="translate(-340 -184)"/>
</svg>
