<svg enable-background="new 0 0 140 140" height="512" viewBox="0 0 140 140" width="512" xmlns="http://www.w3.org/2000/svg"><circle cx="70" cy="70" fill="#509fd7" r="64"/><path d="m40.5999756 72.3300781-.3899536-3.8701172c-.1700439-1.6801758 1.1599731-3.1401367 2.8499756-3.1401367h7.0300293c.7299805-1.7299805 1.6599731-3.5097656 1.5-5.1000977-.2900391-2.7197265-3.9800415-5.2597656-3.9800415-8.0097656 0-1.6899414 1.3800049-3.2998047 2.5200195-4.9101562l-.1600342-.8696289c-.1099854-.6801758.0400391-1.3300781.3900146-1.8701172-.4199829-1.550293-.6499634-3.1401367-.6499634-4.7602539 0-10.5996094 9.1099854-19.2197266 20.289978-19.2197266 6.5900269 0 12.4500122 3.0097656 16.1500244 7.6396484l38.8399658 38.8300781c1.1799927.9404297 2.2399902 2.0102539 3.1699829 3.1699219l5.5700073 5.5703125c-2.9299925 32.6298829-30.3399657 58.209961-63.7299803 58.209961-1.289978 0-2.5700073-.0498047-3.8499756-.1201172l-32.0500488-32.0600586v-18.9799804c.4000244-4.459961 2.9100342-8.2900391 6.5-10.5097657z" opacity=".1"/><path d="m86.9801483 60.2195168c.2851028-2.7174492 3.9817429-5.2620392 3.9816895-8.0172195-.0000534-2.7551765-3.6968079-5.2995453-3.9819641-8.0168877-.2896881-2.7588158 2.7804947-6.1240273 2.1968765-8.7654724-.4878006-2.2079163-3.3131409-3.6243343-4.8507919-5.4210014h-30.0845109c-1.5377083 1.7974396-2.4640923 2.9091454-2.9519501 5.1179466-.5836105 2.641552.5870056 6.3123589.2974319 9.0716171-.2851028 2.7173386-3.9817467 5.2619324-3.9816933 8.0171089.0000572 2.7551765 3.6967545 5.2994385 3.9820251 8.016777.2895737 2.7590408-2.7804947 6.1242485-2.1969376 8.765583.6014252 2.722084 4.7564201 4.2408752 5.6701431 6.7528152.954483 2.6241226-.7919388 7.1897583.5033569 9.4876862 1.0425148 0 3.294281-3.2921829 4.3368492-3.2921829 1.042511 0 2.0850792 3.7956543 3.127594 3.7956543 1.0425644 0 2.0851364-3.7956543 3.1277008-3.7956543 1.0425186 0 2.085083 3.7956543 3.1276016 3.7956543 1.0425644 0 2.0850754-3.7956543 3.1276474-3.7956543 1.042511 0 2.085083 3.7956543 3.127594 3.7956543 1.0425644 0 2.0851364-3.7956543 3.1277084-3.7956543 1.042511 0 3.29422 3.2921829 4.336731 3.2921829 1.2954636-2.2980347-.4510727-6.8636703.5034714-9.4879074.913887-2.5124893 5.0689926-4.0320511 5.6705322-6.7547989.5835498-2.6415557-2.4866253-6.0069847-2.1971051-8.7662467z" fill="#293b44"/><path d="m105.9023132 82.8398285v18.9817276h-71.8047104v-18.9817276c.644928-7.0945816 6.5999908-12.583786 13.7661324-12.583786.4658165 0 .9172859-.0143433 1.3615837-.0645599 4.8084984 6.2129898 12.3114281 10.240448 20.7818146 10.240448 8.4560394 0 15.9590073-4.0274582 20.7674637-10.240448.4442978.0502167.9101105.0645599 1.3615875.0645599 7.1661377 0 13.1355438 5.4892044 13.7661285 12.583786z" fill="#cd5148"/><path d="m70.0015945 80.4244995c8.4626694 0 15.9699478-4.0163956 20.7771835-10.2281799-.7069931-.0692825-1.3931198-.2046967-2.0650787-.3763275-4.479332 5.3410263-11.196167 8.742157-18.7121048 8.742157s-14.2327652-3.4011307-18.7120972-8.742157c-.6719589.1716309-1.3580894.307045-2.0650826.3763275 4.8072397 6.2117843 12.3145181 10.2281799 20.7771798 10.2281799z" fill="#e6e7e8"/><g fill="#ffd25a"><path d="m78.3134918 56.4410477v-4.2514077h-16.6237907v4.2514076c0 6.4507256-4.424614 11.8535538-10.4002037 13.3789444 4.479332 5.3410263 11.1961632 8.742157 18.7120972 8.742157s14.2327728-3.4011307 18.7121048-8.742157c-5.9751969-1.5253906-10.4002076-6.9282188-10.4002076-13.3789443z"/><ellipse cx="84.741" cy="45.607" rx="4.308" ry="2.222" transform="matrix(.247 -.969 .969 .247 19.605 116.447)"/><ellipse cx="55.262" cy="45.607" rx="2.222" ry="4.308" transform="matrix(.969 -.247 .247 .969 -9.558 15.073)"/></g><path d="m85.3874664 39.2716751c0 11.1746407-6.8884888 25.6555786-15.3858719 25.6555786s-15.3858643-14.480938-15.3858643-25.6555786 6.888485-14.8113632 15.3858643-14.8113632 15.3858719 3.6367264 15.3858719 14.8113632z" fill="#fdd96f"/><path d="m53.1090584 46.1560783s18.4893913 1.2616501 25.2921257-15.8932552c0 0 3.0630875 12.053854 8.7650681 14.7430706 0 0 3.3891525-18.8225918-12.4838943-23.0067158s-21.1338272 8.6820564-21.1338272 8.6820564-3.7244111 7.728304-.4394723 15.474844z" fill="#293b44"/><path d="m87.4220276 49.651413-1.8181305-1.1477013c1.6582184-2.627121 2.5347443-5.6363411 2.5347443-8.7022476 0-9.4118576-8.1364441-17.069273-18.1371994-17.069273s-18.1368484 7.6574154-18.1368484 17.069273c0 3.0659065.8765221 6.0751266 2.5347404 8.7022476l-1.8181267 1.1477013c-1.875164-2.9707298-2.8664589-6.3767471-2.8664589-9.8499489 0-10.5973511 9.100441-19.2191162 20.2866936-19.2191162s20.2870407 8.6217651 20.2870407 19.2191162c0 3.4732017-.9912949 6.879219-2.8664551 9.8499489z" fill="#e6e7e8"/><path d="m88.3177948 49.8305664h-1.7915421v5.5334663c0 1.624279-1.3216019 2.9462357-2.9462357 2.9462357h-11.4441299v1.7915344h11.4441299c2.6124268 0 4.7377777-2.1253471 4.7377777-4.7377701v-5.5334663z" fill="#e6e7e8"/><path d="m74.4888535 56.7355003h-3.8290176c-1.1937561 0-2.1615143.967762-2.1615143 2.1615639 0 1.193718.9677582 2.1615639 2.1615143 2.1615639h3.8290176c1.1937561 0 2.1615219-.9678459 2.1615219-2.1615639 0-1.1938019-.9677658-2.1615639-2.1615219-2.1615639z" fill="#d5693c"/><path d="m83.6706161 52.6156349-.0731201-.0128937c-1.383316-.2439156-2.3155518-1.5752869-2.07164-2.9586029l1.2989502-7.3666954c.2439117-1.383316 1.5752869-2.3155518 2.9586029-2.0716362l.0731201.0128937c1.383316.2439156 2.3155518 1.5752907 2.07164 2.9586067l-1.2989502 7.3666916c-.2439193 1.3833161-1.5752868 2.3155518-2.9586029 2.0716362z" fill="#d5693c"/><path d="m87.8924408 43.379982-1.2274704 6.9613152c1.432106.2525177 2.7977142-.7036629 3.0502396-2.1357994l.3130264-1.77528c.2525101-1.4320641-.7036972-2.7977143-2.1357956-3.0502358z" fill="#dad7dc"/><path d="m56.3325768 52.6156349.0731239-.0128937c1.383316-.2439156 2.3155518-1.5752869 2.0716362-2.9586029l-1.2989464-7.3666954c-.2439156-1.383316-1.5752907-2.3155518-2.9586067-2.0716362l-.0731201.0128937c-1.383316.2439194-2.3155518 1.5752907-2.0716362 2.9586029l1.2989464 7.3666954c.2439155 1.3833161 1.5752868 2.3155518 2.9586029 2.0716362z" fill="#d5693c"/><path d="m52.1107559 43.379982 1.2274666 6.9613152c-1.4321022.2525177-2.7977104-.7036629-3.0502357-2.1357994l-.3130302-1.77528c-.2525102-1.4320641.7036971-2.7977143 2.1357993-3.0502358z" fill="#dad7dc"/><path d="m96.9449005 65.3182602h-53.889862c-1.6898842 0-3.0104103 1.4588547-2.8427277 3.1404266l3.3279266 33.3628693h52.9194641l3.3279266-33.3628693c.1677399-1.6815719-1.1528472-3.1404266-2.8427276-3.1404266z" fill="#ececec"/><circle cx="70" cy="83.57" fill="#dad7dc" r="5.496"/></svg>