<svg id="Capa_1" enable-background="new 0 0 512 512" height="512" viewBox="0 0 512 512" width="512" xmlns="http://www.w3.org/2000/svg"><g><g><g><g><g><g><g><circle cx="256" cy="256" fill="#bfe1ff" r="256"/></g></g></g></g></g></g><path d="m512 256c0-6.584-.249-13.11-.737-19.57l-86.143-86.143-62.122-26.461-62.163-62.163-239.171 239.174 62.162 62.162 26.462 62.121 86.143 86.143c6.459.488 12.985.737 19.569.737 141.385 0 256-114.615 256-256z" fill="#87c7ff"/><path d="m450.336 300.835v-89.672h-33.134c-6.014 0-11.46-3.698-13.532-9.343-1.5-4.086-3.164-8.093-4.985-12.012-2.507-5.396-1.291-11.795 2.917-16.002l23.518-23.518-63.407-63.408-23.518 23.518c-4.207 4.207-10.606 5.424-16.002 2.917-3.919-1.821-7.926-3.486-12.013-4.986-5.646-2.072-9.343-7.518-9.343-13.532v-33.133h-89.672v33.133c0 6.014-3.698 11.46-9.344 13.533-4.087 1.5-8.093 3.164-12.013 4.986-5.396 2.508-11.795 1.291-16.002-2.917l-23.519-23.519-63.408 63.408 23.519 23.518c4.207 4.207 5.424 10.606 2.917 16.002-1.821 3.919-3.486 7.926-4.985 12.013-2.072 5.646-7.518 9.343-13.532 9.344h-33.133v89.672h33.134c6.014 0 11.46 3.697 13.532 9.343 1.5 4.086 3.164 8.093 4.985 12.012 2.507 5.396 1.291 11.795-2.917 16.002l-23.519 23.518 63.408 63.408 23.518-23.518c4.207-4.207 10.606-5.424 16.002-2.917 3.919 1.821 7.926 3.486 12.012 4.986 5.646 2.072 9.343 7.518 9.343 13.532v33.133h89.672v-33.133c0-6.014 3.698-11.46 9.344-13.533 4.086-1.5 8.093-3.164 12.013-4.986 5.396-2.508 11.795-1.291 16.002 2.917l23.518 23.518 63.408-63.408-23.519-23.518c-4.207-4.207-5.424-10.606-2.917-16.002 1.821-3.919 3.486-7.926 4.985-12.013 2.072-5.646 7.518-9.344 13.532-9.344h33.135z" fill="#606aea"/><path d="m403.671 310.179c2.072-5.646 7.518-9.344 13.532-9.344h33.133v-89.672h-33.134c-6.014 0-11.46-3.698-13.532-9.343-1.5-4.086-3.164-8.093-4.985-12.012-2.508-5.396-1.291-11.795 2.917-16.002l23.518-23.518-63.407-63.408-23.518 23.518c-4.207 4.208-10.606 5.424-16.002 2.917-3.919-1.821-7.926-3.486-12.013-4.986-5.646-2.072-9.344-7.518-9.344-13.532v-33.133h-44.836v388.673h44.836v-33.133c0-6.014 3.698-11.46 9.344-13.533 4.086-1.5 8.093-3.164 12.013-4.985 5.396-2.508 11.795-1.291 16.002 2.917l23.518 23.519 63.408-63.408-23.519-23.518c-4.207-4.208-5.424-10.606-2.917-16.002 1.822-3.922 3.486-7.928 4.986-12.015z" fill="#4855b7"/><g><path d="m205.177 305.355h101.647v146.645h-101.647z" fill="#fdba12"/></g><g><path d="m256 305.355h50.823v146.645h-50.823z" fill="#ffa300"/></g><g><path d="m311.613 165.273v103.593l-55.613 26.022-55.613-26.022v-103.593c-33.285 19.239-55.682 55.217-55.682 96.426 0 61.467 49.829 111.296 111.296 111.296s111.296-49.829 111.296-111.296c-.001-41.209-22.399-77.187-55.684-96.426z" fill="#ffce00"/></g><g><path d="m311.613 165.273v103.593l-55.613 26.022v78.103c.089 0-.089.003 0 .003 61.467 0 111.296-49.829 111.296-111.296 0-41.208-22.398-77.186-55.683-96.425z" fill="#fdba12"/></g></g></svg>